<svg width="154" height="38" viewBox="0 0 154 38" fill="none" xmlns="http://www.w3.org/2000/svg">
<g clip-path="url(#clip0_3537_1998)">
<path d="M37.9994 19.0372C27.8073 19.6519 19.6514 27.8081 19.0367 38H18.9623C18.3477 27.8081 10.1918 19.6519 0 19.0372V18.9628C10.1918 18.3481 18.3477 10.1922 18.9623 0H19.0367C19.6514 10.1922 27.8073 18.3481 37.9994 18.9628V19.0372Z" fill="#1A3B3B"/>
</g>
<g clip-path="url(#clip1_3537_1998)">
<path d="M95.9994 19.0372C85.8073 19.6519 77.6514 27.8081 77.0367 38H76.9623C76.3477 27.8081 68.1918 19.6519 58 19.0372V18.9628C68.1918 18.3481 76.3477 10.1922 76.9623 0H77.0367C77.6514 10.1922 85.8073 18.3481 95.9994 18.9628V19.0372Z" fill="#1A3B3B"/>
</g>
<g clip-path="url(#clip2_3537_1998)">
<path d="M153.999 19.0372C143.807 19.6519 135.651 27.8081 135.037 38H134.962C134.348 27.8081 126.192 19.6519 116 19.0372V18.9628C126.192 18.3481 134.348 10.1922 134.962 0H135.037C135.651 10.1922 143.807 18.3481 153.999 18.9628V19.0372Z" fill="#1A3B3B"/>
</g>
<defs>
<clipPath id="clip0_3537_1998">
<rect width="38" height="38" fill="white"/>
</clipPath>
<clipPath id="clip1_3537_1998">
<rect width="38" height="38" fill="white" transform="translate(58)"/>
</clipPath>
<clipPath id="clip2_3537_1998">
<rect width="38" height="38" fill="white" transform="translate(116)"/>
</clipPath>
</defs>
</svg>
