<svg width="276" height="99" viewBox="0 0 276 99" fill="none" xmlns="http://www.w3.org/2000/svg">
<path d="M234.07 38.5996L242.146 48.4221L239.806 52.0012L228.728 68.9417H214.231L223.777 54.3449L230.638 43.8547L234.07 38.5996Z" fill="white"/>
<path d="M260.092 20.9783L258.523 23.3788L246.974 41.0405L243.612 46.1821L235.536 36.3597L237.806 32.8908L248.35 16.7648L248.534 16.4844H259.461C259.792 17.2356 259.842 18.1003 260.029 18.5377C260.296 19.172 260.092 20.9783 260.092 20.9783Z" fill="white"/>
<path d="M3.36212 28.7774C5.60242 24.7176 8.73083 21.5558 12.7407 19.2855C16.7505 17.0185 21.2979 15.8867 26.3794 15.8867C32.6062 15.8867 37.9382 17.5294 42.372 20.818C46.8059 24.1066 49.7707 28.5905 51.2665 34.2696H37.217C36.172 32.0794 34.6896 30.4101 32.7698 29.2616C30.85 28.1164 28.6698 27.5421 26.2325 27.5421C22.2962 27.5421 19.1077 28.9143 16.667 31.6521C14.2264 34.3932 13.0044 38.0524 13.0044 42.6364C13.0044 47.2204 14.2231 50.883 16.667 53.6207C19.1077 56.3618 22.2962 57.7307 26.2325 57.7307C28.6732 57.7307 30.8534 57.1598 32.7698 56.0112C34.6862 54.8661 36.1687 53.1967 37.217 51.0032H51.2665C49.7707 56.6823 46.8059 61.1562 42.372 64.4181C37.9382 67.68 32.6062 69.3126 26.3794 69.3126C21.2979 69.3126 16.7505 68.1808 12.7407 65.9139C8.73083 63.6469 5.60242 60.4951 3.36212 56.462C1.12182 52.4255 0 47.8181 0 42.6364C0 37.4581 1.12182 32.8373 3.36212 28.7774Z" fill="#F36F21"/>
<path d="M71.8902 16.4844V68.9421H59.1128V16.4844H71.8902Z" fill="#F36F21"/>
<path d="M115.978 33.0736C115.03 31.3307 113.675 29.9986 111.905 29.0771C110.136 28.1556 108.056 27.6949 105.665 27.6949C101.528 27.6949 98.2163 29.0538 95.7256 31.7681C93.2349 34.4825 91.9895 38.1083 91.9895 42.6423C91.9895 47.4767 93.2983 51.2494 95.9126 53.9638C98.5268 56.6782 102.126 58.037 106.71 58.037C109.848 58.037 112.503 57.2391 114.67 55.6465C116.836 54.054 118.419 51.7603 119.414 48.7721H103.198V39.357H130.996V51.2394C130.048 54.4279 128.442 57.3927 126.175 60.1304C123.908 62.8715 121.03 65.0884 117.544 66.7811C114.055 68.4772 110.119 69.3218 105.738 69.3218C100.557 69.3218 95.9359 68.19 91.876 65.923C87.8161 63.6561 84.651 60.5043 82.384 56.4712C80.1169 52.4347 78.9851 47.8273 78.9851 42.6456C78.9851 37.4639 80.1169 32.8432 82.384 28.7833C84.651 24.7235 87.8027 21.5617 91.836 19.2914C95.8725 17.0244 100.48 15.8926 105.662 15.8926C111.939 15.8926 117.23 17.4117 121.541 20.4499C125.848 23.4881 128.702 27.6982 130.098 33.0802H115.978V33.0736Z" fill="#F36F21"/>
<path d="M185.03 68.9454H172.252L150.881 36.5867V68.9454H138.104V16.4844H150.881L172.252 48.99V16.4844H185.03V68.9454Z" fill="#F36F21"/>
<path d="M207.073 16.4844V68.9421H194.295V16.4844H207.073Z" fill="#F36F21"/>
<path d="M233.977 60.8582L228.695 68.9412H222.722L229.646 58.0938L233.977 60.8582Z" fill="#E05D26"/>
<path d="M229.646 58.0931L222.722 68.9406H214.231L223.777 54.3438L229.646 58.0931Z" fill="#F36F21"/>
<path d="M260.092 20.9791L258.53 23.383L258.523 23.3797L248.35 16.7657L248.343 16.7624L249.865 14.4186C250.527 13.5873 251.148 14.0947 251.902 13.614C252.657 13.1365 253.448 13.2267 254.102 13.5806C254.753 13.9378 255.384 13.8043 256.136 13.6974C256.887 13.5873 257.862 14.8359 258.82 15.6105C259.114 15.8476 259.317 16.1547 259.461 16.4853C259.792 17.2365 259.842 18.1012 260.029 18.5386C260.296 19.1729 260.092 20.9791 260.092 20.9791Z" fill="#676867"/>
<path d="M253.882 15.7715C253.882 15.7715 253.265 15.8883 253.275 16.0953C253.285 16.3023 253.461 16.1554 253.451 16.3324C253.441 16.5093 253.265 16.7731 253.441 16.8632C253.618 16.9534 253.815 16.7163 253.882 16.6362C253.952 16.5561 254.109 16.3891 254.119 16.5861C254.129 16.7831 254.012 17.0669 254.246 17.1571C254.48 17.2472 254.64 16.8332 254.54 16.5961C254.44 16.3591 254.029 16.3591 253.999 16.2122C253.969 16.0653 253.752 16.0352 253.812 15.9651C253.872 15.8984 253.872 15.8516 253.882 15.7715Z" fill="white"/>
<path d="M257.111 14.9023C257.111 14.9023 256.494 15.0192 256.504 15.2262C256.514 15.4332 256.691 15.2863 256.681 15.4632C256.67 15.6402 256.494 15.904 256.67 15.9941C256.847 16.0842 257.044 15.8472 257.111 15.7671C257.181 15.6869 257.338 15.52 257.348 15.717C257.358 15.914 257.241 16.1978 257.475 16.2879C257.712 16.3747 257.869 15.9641 257.769 15.727C257.672 15.49 257.258 15.4899 257.228 15.343C257.198 15.1961 256.981 15.1661 257.041 15.096C257.101 15.0292 257.101 14.9825 257.111 14.9023Z" fill="white"/>
<path d="M256.667 19.7361C256.667 19.7361 257.291 19.656 257.295 19.449C257.298 19.242 257.111 19.3789 257.135 19.2019C257.155 19.025 257.348 18.7712 257.178 18.6744C257.008 18.5776 256.797 18.7979 256.724 18.8714C256.65 18.9448 256.484 19.1018 256.487 18.9048C256.49 18.7078 256.624 18.4307 256.393 18.3272C256.163 18.2237 255.983 18.6277 256.066 18.868C256.15 19.1084 256.56 19.1351 256.58 19.282C256.6 19.4323 256.814 19.4724 256.751 19.5391C256.684 19.6092 256.68 19.6593 256.667 19.7361Z" fill="white"/>
<path d="M257.973 21.0159C257.973 21.0159 257.362 20.859 257.285 21.0493C257.208 21.2396 257.428 21.1828 257.345 21.3364C257.261 21.4933 256.988 21.6569 257.111 21.8138C257.235 21.9674 257.512 21.8406 257.609 21.7972C257.705 21.7537 257.916 21.6703 257.842 21.8539C257.769 22.0375 257.538 22.2445 257.715 22.4248C257.892 22.6051 258.21 22.298 258.22 22.0442C258.23 21.7905 257.859 21.6135 257.892 21.4666C257.929 21.3197 257.745 21.2029 257.829 21.1661C257.909 21.1294 257.929 21.0827 257.973 21.0159Z" fill="white"/>
<path d="M253.272 19.2283C253.272 19.2283 253.896 19.1482 253.9 18.9412C253.903 18.7342 253.716 18.8711 253.739 18.6941C253.759 18.5171 253.953 18.2634 253.783 18.1666C253.612 18.0664 253.402 18.2901 253.329 18.3636C253.255 18.437 253.088 18.5939 253.092 18.397C253.095 18.2 253.228 17.9229 252.998 17.8194C252.768 17.7159 252.587 18.1198 252.671 18.3602C252.754 18.6006 253.165 18.6273 253.185 18.7742C253.205 18.9245 253.419 18.9645 253.355 19.0313C253.289 19.1014 253.285 19.1515 253.272 19.2283Z" fill="white"/>
<path d="M255.806 15.9049C255.806 15.9049 255.482 15.8181 255.599 16.2789C255.716 16.7396 255.87 16.8097 255.689 16.9767C255.509 17.1436 256.167 16.9967 256.04 16.8498C255.913 16.7029 255.826 16.556 255.856 16.359C255.886 16.162 255.873 15.9083 255.806 15.9049Z" fill="white"/>
<path d="M255.041 18.0846C255.041 18.0846 254.717 17.9978 254.834 18.4586C254.951 18.9193 255.104 18.9894 254.924 19.1563C254.744 19.3233 255.402 19.1764 255.275 19.0295C255.148 18.8826 255.061 18.7357 255.091 18.5387C255.118 18.3417 255.108 18.0913 255.041 18.0846Z" fill="white"/>
<path d="M258.033 17.6686C258.033 17.6686 257.709 17.5818 257.826 18.0426C257.943 18.5033 258.096 18.5734 257.916 18.7403C257.739 18.9073 258.393 18.7604 258.266 18.6135C258.14 18.4666 258.053 18.3197 258.083 18.1227C258.109 17.9257 258.099 17.6753 258.033 17.6686Z" fill="white"/>
<path d="M251.485 15.8985C251.288 15.8951 251.348 16.3759 251.485 16.4727C251.622 16.5729 251.435 16.7598 251.485 16.8767C251.535 16.9936 251.819 17.1505 251.839 16.9368C251.859 16.7231 251.702 16.5061 251.692 16.3659C251.682 16.229 251.672 15.9018 251.485 15.8985Z" fill="white"/>
<path d="M252.968 14.4778C253.175 14.4678 253.576 14.4678 253.596 14.6948C253.616 14.9218 253.252 14.9986 253.202 14.9319C253.152 14.8617 252.818 14.6481 252.681 14.6481C252.544 14.6481 252.968 14.4778 252.968 14.4778Z" fill="white"/>
<path d="M258.447 16.9629C258.664 17.1899 258.564 17.5605 258.533 17.5905C258.503 17.6206 258.346 17.7374 258.316 17.5905C258.286 17.4436 258.377 17.3067 258.23 17.1098C258.083 16.9128 258.053 16.7559 258.123 16.7559C258.193 16.7559 258.447 16.9629 258.447 16.9629Z" fill="white"/>
<path d="M251.091 14.8965C251.308 15.1235 251.208 15.4941 251.178 15.5241C251.148 15.5542 250.991 15.671 250.961 15.5241C250.931 15.3772 251.021 15.2403 250.874 15.0434C250.727 14.8464 250.697 14.6895 250.767 14.6895C250.837 14.6895 251.091 14.8965 251.091 14.8965Z" fill="white"/>
<path d="M259.429 19.7918C259.429 20.0455 259.165 20.1557 259.155 20.4495C259.145 20.7433 258.928 20.7133 258.891 20.7033C258.851 20.6932 258.754 20.4395 258.851 20.3493C258.948 20.2592 259.115 20.2325 259.118 20.0455C259.125 19.8586 259.282 19.6916 259.282 19.6916C259.282 19.6916 259.429 19.5848 259.429 19.7918Z" fill="white"/>
<path d="M256.721 20.3152C256.721 20.569 256.457 20.6791 256.447 20.9729C256.437 21.2668 256.22 21.2367 256.183 21.2267C256.143 21.2167 256.046 20.9629 256.143 20.8728C256.24 20.786 256.403 20.7559 256.41 20.569C256.417 20.382 256.574 20.2151 256.574 20.2151C256.574 20.2151 256.721 20.1082 256.721 20.3152Z" fill="white"/>
<path d="M249.886 15.9902C249.886 15.9902 249.355 16.2273 249.592 16.3942C249.829 16.5612 250.28 16.698 250.31 16.5311C250.34 16.3642 250.223 16.284 250.103 16.2273C249.983 16.1672 249.993 16.0103 249.886 15.9902Z" fill="white"/>
<path d="M255.365 14.5957C255.462 14.5957 255.826 14.7126 255.816 14.8327C255.806 14.9496 255.906 15.1266 255.589 14.9997C255.271 14.8728 255.205 14.7493 255.018 14.8194C254.831 14.8895 254.614 14.7827 254.674 14.7159C254.734 14.6491 255.365 14.5957 255.365 14.5957Z" fill="white"/>
<path d="M247.188 40.7119L243.582 46.2442L234.884 35.7005L216.855 13.832L237.322 31.9679L247.188 40.7119Z" fill="white"/>
<path d="M264.172 75.2552L240.874 54.5252L229.99 44.843L234.07 38.5996L243.659 50.2751L264.172 75.2552Z" fill="white"/>
<path d="M258.523 23.3796L256.436 26.5681L256.406 26.6148L253.651 24.9488C253.625 24.8753 253.591 24.8086 253.534 24.7752C253.434 24.7151 253.164 24.5982 252.903 24.4981L252.029 23.9705C251.772 23.7468 251.535 23.5198 251.481 23.4864C251.431 23.4564 251.311 23.4564 251.171 23.4497L250.192 22.8588C250.156 22.822 250.119 22.792 250.079 22.7653C249.859 22.625 249.668 22.4982 249.515 22.3813C249.358 22.2645 249.344 22.0508 249.041 21.954C248.74 21.8571 247.989 21.0559 247.738 20.9156C247.488 20.7754 247.231 20.6519 246.944 20.5484C246.7 20.4616 246.206 20.3848 246.059 20.3614L246.026 20.3414L246.016 20.3347L248.349 16.7656L258.523 23.3796Z" fill="#676867"/>
<path d="M256.437 26.5672C256.433 26.5872 256.43 26.5972 256.43 26.5972C256.43 26.5972 256.123 27.0713 256.056 27.1682C255.993 27.2683 256.136 26.7174 255.979 26.4904C255.826 26.2634 254.801 26.0764 254.7 25.9162C254.597 25.7526 254.293 25.5689 254.176 25.4888C254.059 25.4087 253.926 25.3252 253.792 25.215C253.719 25.1516 253.689 25.0447 253.652 24.9479C253.625 24.8745 253.592 24.8077 253.535 24.7743C253.435 24.7142 253.165 24.5974 252.904 24.4972C252.817 24.4638 252.731 24.4304 252.65 24.4071C252.5 24.3603 252.256 24.1667 252.029 23.9697C251.772 23.746 251.535 23.519 251.482 23.4856C251.432 23.4555 251.312 23.4555 251.171 23.4488C251.014 23.4455 250.834 23.4288 250.694 23.3587C250.477 23.2519 250.353 23.0148 250.193 22.8579C250.156 22.8212 250.12 22.7911 250.08 22.7644C249.859 22.6242 249.669 22.4973 249.515 22.3805C249.358 22.2636 249.345 22.0499 249.041 21.9531C248.741 21.8563 247.99 21.055 247.739 20.9148C247.489 20.7745 247.232 20.651 246.945 20.5475C246.701 20.4607 246.207 20.3839 246.06 20.3605C246.033 20.3572 246.016 20.3539 246.016 20.3539L246.026 20.3405L246.257 19.9833C246.257 19.9833 247.419 19.8063 247.929 20.6877C248.44 21.5725 249.145 21.9097 249.422 21.8696C249.696 21.8296 249.766 22.2669 249.976 22.4038C250.183 22.5374 250.363 22.3938 250.423 22.4439C250.48 22.4973 250.29 22.2803 250.56 22.534C250.834 22.7911 251.125 23.2919 251.245 23.2285C251.365 23.1651 251.405 23.0883 251.622 23.2352C251.836 23.3787 252.283 23.6225 252.327 23.7927C252.373 23.963 253.151 24.2635 253.151 24.2635C253.151 24.2635 253.619 24.377 253.729 24.4471C253.839 24.5172 254.036 24.5172 254.153 24.5974C254.273 24.6775 254.43 24.781 254.487 24.9346C254.547 25.0882 254.744 25.3252 254.744 25.3252L255.412 25.599C255.412 25.599 256.093 25.6791 256.243 25.599C256.393 25.5188 256.55 25.3052 256.61 25.5021C256.66 25.6758 256.48 26.4036 256.437 26.5672Z" fill="#E23A26"/>
<path d="M253.046 23.7587C253.046 23.7587 253.664 23.6419 253.654 23.4349C253.644 23.2279 253.467 23.3748 253.477 23.1978C253.487 23.0209 253.664 22.7571 253.487 22.667C253.31 22.5802 253.113 22.8139 253.046 22.894C252.976 22.9741 252.819 23.1411 252.809 22.9441C252.799 22.7471 252.916 22.4633 252.682 22.3732C252.445 22.2864 252.288 22.697 252.389 22.9341C252.485 23.1711 252.899 23.1711 252.93 23.318C252.96 23.4649 253.177 23.495 253.116 23.5651C253.056 23.6319 253.056 23.6819 253.046 23.7587Z" fill="white"/>
<path d="M253.938 21.4013C253.938 21.4013 254.556 21.2845 254.546 21.0775C254.536 20.8705 254.359 21.0174 254.369 20.8404C254.379 20.6635 254.556 20.3997 254.379 20.3096C254.202 20.2228 254.005 20.4565 253.938 20.5366C253.871 20.6167 253.711 20.7837 253.701 20.5867C253.691 20.3897 253.808 20.1059 253.574 20.0158C253.337 19.929 253.18 20.3396 253.28 20.5767C253.377 20.8137 253.791 20.8137 253.821 20.9606C253.851 21.1075 254.068 21.1376 254.008 21.2077C253.948 21.2778 253.948 21.3212 253.938 21.4013Z" fill="white"/>
<path d="M250.262 19.7949C250.262 19.7949 249.638 19.8751 249.634 20.0821C249.631 20.2891 249.818 20.1522 249.795 20.3291C249.775 20.5061 249.581 20.7598 249.751 20.8566C249.921 20.9568 250.132 20.7331 250.205 20.6596C250.279 20.5862 250.446 20.4293 250.442 20.6263C250.439 20.8232 250.305 21.1004 250.536 21.2039C250.766 21.3074 250.946 20.9034 250.863 20.663C250.78 20.4226 250.369 20.3959 250.349 20.249C250.329 20.0987 250.115 20.0587 250.179 19.9919C250.242 19.9218 250.245 19.8751 250.262 19.7949Z" fill="white"/>
<path d="M248.953 18.5099C248.953 18.5099 249.564 18.6668 249.641 18.4765C249.718 18.2862 249.498 18.343 249.581 18.1894C249.664 18.0325 249.938 17.8689 249.815 17.712C249.691 17.5584 249.414 17.6853 249.317 17.7287C249.22 17.7721 249.01 17.8555 249.084 17.6719C249.157 17.4916 249.387 17.2813 249.21 17.101C249.033 16.9207 248.716 17.2279 248.706 17.4816C248.696 17.7353 249.067 17.9123 249.033 18.0592C248.997 18.2061 249.18 18.3229 249.097 18.3597C249.017 18.3997 248.997 18.4431 248.953 18.5099Z" fill="white"/>
<path d="M251.888 21.4447C251.888 21.4447 252.212 21.5315 252.095 21.0708C251.978 20.61 251.825 20.5399 252.005 20.373C252.185 20.206 251.527 20.3529 251.654 20.4998C251.781 20.6467 251.868 20.7936 251.838 20.9906C251.808 21.1876 251.818 21.438 251.888 21.4447Z" fill="white"/>
<path d="M255.441 23.6286C255.638 23.6319 255.578 23.1511 255.441 23.0543C255.304 22.9541 255.491 22.7672 255.441 22.6503C255.391 22.5335 255.107 22.3765 255.087 22.5902C255.067 22.8039 255.224 23.0209 255.234 23.1611C255.247 23.298 255.257 23.6252 255.441 23.6286Z" fill="white"/>
<path d="M255.834 24.6299C255.617 24.4028 255.717 24.0322 255.747 24.0022C255.777 23.9721 255.934 23.8553 255.964 24.0022C255.994 24.1491 255.904 24.286 256.051 24.483C256.198 24.6799 256.228 24.8369 256.158 24.8369C256.088 24.8369 255.834 24.6299 255.834 24.6299Z" fill="white"/>
<path d="M247.498 19.7396C247.498 19.4859 247.761 19.3757 247.771 19.0819C247.781 18.7881 247.998 18.8182 248.035 18.8282C248.075 18.8382 248.172 19.0919 248.075 19.1821C247.978 19.2722 247.811 19.2989 247.808 19.4859C247.801 19.6729 247.644 19.8398 247.644 19.8398C247.644 19.8398 247.498 19.9433 247.498 19.7396Z" fill="white"/>
<path d="M250.208 19.2162C250.208 18.9625 250.472 18.8523 250.482 18.5585C250.492 18.2647 250.709 18.2947 250.746 18.3047C250.786 18.3148 250.883 18.5685 250.786 18.6586C250.689 18.7455 250.522 18.7755 250.519 18.9625C250.512 19.1494 250.355 19.3164 250.355 19.3164C250.355 19.3164 250.208 19.4232 250.208 19.2162Z" fill="white"/>
<path d="M257.043 23.5386C257.043 23.5386 257.574 23.3016 257.337 23.1347C257.1 22.9677 256.649 22.8308 256.619 22.9978C256.589 23.1647 256.706 23.2448 256.826 23.3016C256.943 23.3617 256.936 23.5186 257.043 23.5386Z" fill="white"/>
<path d="M264.492 3.04275V3.67523H262.868V9H262.09V3.67523H260.458V3.04275H264.492ZM271.492 3.08549V9H270.714V4.58976L268.748 9H268.201L266.227 4.58121V9H265.449V3.08549H266.287L268.475 7.97436L270.663 3.08549H271.492Z" fill="white"/>
<path d="M54.1538 90.6923L52.3718 88.9103C51.9359 89.0299 51.4914 89.0897 51.0384 89.0897C50.2094 89.0897 49.453 88.8974 48.7692 88.5128C48.0855 88.1197 47.5427 87.5769 47.141 86.8846C46.7479 86.1838 46.5513 85.3974 46.5513 84.5257C46.5513 83.6539 46.7479 82.8718 47.141 82.1795C47.5427 81.4787 48.0855 80.9359 48.7692 80.5513C49.453 80.1581 50.2094 79.9616 51.0384 79.9616C51.8761 79.9616 52.6367 80.1581 53.3205 80.5513C54.0043 80.9359 54.5427 81.4744 54.9359 82.1667C55.329 82.859 55.5256 83.6453 55.5256 84.5257C55.5256 85.3804 55.3376 86.1496 54.9615 86.8333C54.5854 87.5171 54.0684 88.0556 53.4102 88.4487L55.6666 90.6923H54.1538ZM47.7436 84.5257C47.7436 85.2351 47.8846 85.859 48.1667 86.3974C48.4573 86.9359 48.8504 87.3504 49.3461 87.641C49.8504 87.9316 50.4145 88.0769 51.0384 88.0769C51.6624 88.0769 52.2222 87.9316 52.7179 87.641C53.2222 87.3504 53.6154 86.9359 53.8974 86.3974C54.188 85.859 54.3333 85.2351 54.3333 84.5257C54.3333 83.8077 54.188 83.1838 53.8974 82.6539C53.6154 82.1154 53.2265 81.7009 52.7308 81.4103C52.235 81.1197 51.6709 80.9744 51.0384 80.9744C50.406 80.9744 49.8419 81.1197 49.3461 81.4103C48.8504 81.7009 48.4573 82.1154 48.1667 82.6539C47.8846 83.1838 47.7436 83.8077 47.7436 84.5257ZM63.3216 81.9744V89H62.1549V87.9615C61.9327 88.3205 61.6207 88.6026 61.219 88.8077C60.8258 89.0043 60.39 89.1026 59.9113 89.1026C59.3643 89.1026 58.8729 88.9915 58.437 88.7692C58.0011 88.5385 57.6549 88.1966 57.3985 87.7436C57.1506 87.2906 57.0267 86.7393 57.0267 86.0898V81.9744H58.1806V85.9359C58.1806 86.6282 58.3558 87.1624 58.7062 87.5385C59.0566 87.906 59.5353 88.0897 60.1421 88.0897C60.766 88.0897 61.2575 87.8974 61.6164 87.5128C61.9754 87.1282 62.1549 86.5684 62.1549 85.8333V81.9744H63.3216ZM65.894 80.8334C65.6718 80.8334 65.4837 80.7564 65.3299 80.6026C65.176 80.4487 65.0991 80.2607 65.0991 80.0385C65.0991 79.8163 65.176 79.6282 65.3299 79.4744C65.4837 79.3205 65.6718 79.2436 65.894 79.2436C66.1077 79.2436 66.2871 79.3205 66.4324 79.4744C66.5863 79.6282 66.6632 79.8163 66.6632 80.0385C66.6632 80.2607 66.5863 80.4487 66.4324 80.6026C66.2871 80.7564 66.1077 80.8334 65.894 80.8334ZM66.4581 81.9744V89H65.2914V81.9744H66.4581ZM69.8695 82.9359V87.0769C69.8695 87.4188 69.9422 87.6624 70.0875 87.8077C70.2328 87.9444 70.4849 88.0128 70.8439 88.0128H71.7029V89H70.6516C70.002 89 69.5148 88.8504 69.19 88.5513C68.8653 88.2521 68.7029 87.7607 68.7029 87.0769V82.9359H67.7926V81.9744H68.7029V80.2052H69.8695V81.9744H71.7029V82.9359H69.8695ZM74.5395 82.9359V87.0769C74.5395 87.4188 74.6121 87.6624 74.7574 87.8077C74.9027 87.9444 75.1549 88.0128 75.5138 88.0128H76.3728V89H75.3215C74.672 89 74.1848 88.8504 73.86 88.5513C73.5352 88.2521 73.3728 87.7607 73.3728 87.0769V82.9359H72.4626V81.9744H73.3728V80.2052H74.5395V81.9744H76.3728V82.9359H74.5395ZM78.3889 80.8334C78.1667 80.8334 77.9787 80.7564 77.8248 80.6026C77.671 80.4487 77.5941 80.2607 77.5941 80.0385C77.5941 79.8163 77.671 79.6282 77.8248 79.4744C77.9787 79.3205 78.1667 79.2436 78.3889 79.2436C78.6026 79.2436 78.7821 79.3205 78.9274 79.4744C79.0812 79.6282 79.1582 79.8163 79.1582 80.0385C79.1582 80.2607 79.0812 80.4487 78.9274 80.6026C78.7821 80.7564 78.6026 80.8334 78.3889 80.8334ZM78.953 81.9744V89H77.7864V81.9744H78.953ZM84.3645 81.8462C85.2192 81.8462 85.9115 82.1069 86.4414 82.6282C86.9713 83.141 87.2363 83.8846 87.2363 84.859V89H86.0824V85.0257C86.0824 84.3248 85.9072 83.7906 85.5568 83.4231C85.2064 83.047 84.7277 82.859 84.1209 82.859C83.5055 82.859 83.0141 83.0513 82.6465 83.4359C82.2876 83.8205 82.1081 84.3804 82.1081 85.1154V89H80.9414V81.9744H82.1081V82.9744C82.3388 82.6154 82.6508 82.3376 83.044 82.141C83.4457 81.9445 83.8858 81.8462 84.3645 81.8462ZM92.0394 81.859C92.6463 81.859 93.1762 81.9915 93.6292 82.2564C94.0907 82.5214 94.4326 82.8547 94.6548 83.2564V81.9744H95.8343V89.1538C95.8343 89.7949 95.6975 90.3632 95.424 90.859C95.1505 91.3632 94.7574 91.7564 94.2446 92.0385C93.7403 92.3205 93.1505 92.4615 92.4753 92.4615C91.5523 92.4615 90.783 92.2436 90.1676 91.8077C89.5523 91.3718 89.189 90.7778 89.0779 90.0256H90.2317C90.36 90.453 90.6249 90.7949 91.0266 91.0513C91.4283 91.3162 91.9112 91.4487 92.4753 91.4487C93.1164 91.4487 93.6377 91.2479 94.0394 90.8461C94.4497 90.4444 94.6548 89.8803 94.6548 89.1538V87.6795C94.424 88.0897 94.0822 88.4316 93.6292 88.7051C93.1762 88.9786 92.6463 89.1154 92.0394 89.1154C91.4155 89.1154 90.8471 88.9615 90.3343 88.6538C89.83 88.3462 89.4326 87.9145 89.142 87.359C88.8514 86.8034 88.7061 86.1709 88.7061 85.4615C88.7061 84.7436 88.8514 84.1154 89.142 83.5769C89.4326 83.0299 89.83 82.6069 90.3343 82.3077C90.8471 82.0086 91.4155 81.859 92.0394 81.859ZM94.6548 85.4744C94.6548 84.9445 94.548 84.4829 94.3343 84.0898C94.1206 83.6966 93.83 83.3975 93.4625 83.1923C93.1035 82.9786 92.7061 82.8718 92.2702 82.8718C91.8343 82.8718 91.4369 82.9744 91.0779 83.1795C90.7189 83.3846 90.4326 83.6838 90.2189 84.0769C90.0053 84.4701 89.8984 84.9316 89.8984 85.4615C89.8984 86 90.0053 86.4701 90.2189 86.8718C90.4326 87.265 90.7189 87.5684 91.0779 87.7821C91.4369 87.9872 91.8343 88.0897 92.2702 88.0897C92.7061 88.0897 93.1035 87.9872 93.4625 87.7821C93.83 87.5684 94.1206 87.265 94.3343 86.8718C94.548 86.4701 94.6548 86.0043 94.6548 85.4744ZM104.057 89.0897C103.467 89.0897 102.937 88.9872 102.467 88.7821C102.006 88.5684 101.643 88.2778 101.378 87.9103C101.113 87.5342 100.976 87.1026 100.967 86.6154H102.211C102.254 87.0342 102.425 87.3889 102.724 87.6795C103.031 87.9615 103.476 88.1026 104.057 88.1026C104.613 88.1026 105.049 87.9658 105.365 87.6923C105.69 87.4103 105.852 87.0513 105.852 86.6154C105.852 86.2735 105.758 85.9957 105.57 85.7821C105.382 85.5684 105.147 85.406 104.865 85.2949C104.583 85.1838 104.202 85.0641 103.724 84.9359C103.134 84.7821 102.66 84.6282 102.301 84.4744C101.95 84.3205 101.647 84.0812 101.39 83.7564C101.143 83.4231 101.019 82.9786 101.019 82.4231C101.019 81.9359 101.143 81.5043 101.39 81.1282C101.638 80.7522 101.984 80.4616 102.429 80.2564C102.882 80.0513 103.399 79.9487 103.98 79.9487C104.818 79.9487 105.502 80.1581 106.031 80.5769C106.57 80.9957 106.873 81.5513 106.942 82.2436H105.66C105.617 81.9017 105.437 81.6026 105.121 81.3462C104.805 81.0812 104.386 80.9487 103.865 80.9487C103.378 80.9487 102.98 81.0769 102.673 81.3334C102.365 81.5812 102.211 81.9316 102.211 82.3846C102.211 82.7094 102.301 82.9744 102.48 83.1795C102.668 83.3846 102.895 83.5427 103.16 83.6539C103.433 83.7564 103.814 83.8761 104.301 84.0128C104.89 84.1752 105.365 84.3376 105.724 84.5C106.083 84.6539 106.39 84.8974 106.647 85.2308C106.903 85.5556 107.031 86 107.031 86.5641C107.031 87 106.916 87.4103 106.685 87.7949C106.455 88.1795 106.113 88.4915 105.66 88.7308C105.207 88.9701 104.673 89.0897 104.057 89.0897ZM117.197 81.8462C117.744 81.8462 118.231 81.9616 118.659 82.1923C119.086 82.4145 119.424 82.7522 119.671 83.2051C119.919 83.6581 120.043 84.2094 120.043 84.859V89H118.889V85.0257C118.889 84.3248 118.714 83.7906 118.364 83.4231C118.022 83.047 117.556 82.859 116.966 82.859C116.359 82.859 115.877 83.0556 115.518 83.4487C115.159 83.8333 114.979 84.3932 114.979 85.1282V89H113.825V85.0257C113.825 84.3248 113.65 83.7906 113.3 83.4231C112.958 83.047 112.492 82.859 111.902 82.859C111.295 82.859 110.812 83.0556 110.453 83.4487C110.094 83.8333 109.915 84.3932 109.915 85.1282V89H108.748V81.9744H109.915V82.9872C110.146 82.6197 110.453 82.3376 110.838 82.141C111.231 81.9445 111.663 81.8462 112.133 81.8462C112.723 81.8462 113.244 81.9787 113.697 82.2436C114.15 82.5086 114.488 82.8975 114.71 83.4103C114.906 82.9145 115.231 82.5299 115.684 82.2564C116.137 81.9829 116.641 81.8462 117.197 81.8462ZM125.021 89.1154C124.363 89.1154 123.765 88.9658 123.226 88.6667C122.696 88.3675 122.277 87.9444 121.97 87.3974C121.671 86.8419 121.521 86.2009 121.521 85.4744C121.521 84.7564 121.675 84.1239 121.983 83.5769C122.299 83.0214 122.726 82.5983 123.265 82.3077C123.803 82.0086 124.406 81.859 125.072 81.859C125.739 81.859 126.342 82.0086 126.88 82.3077C127.418 82.5983 127.842 83.0171 128.149 83.5641C128.465 84.1111 128.624 84.7479 128.624 85.4744C128.624 86.2009 128.461 86.8419 128.136 87.3974C127.82 87.9444 127.389 88.3675 126.842 88.6667C126.295 88.9658 125.688 89.1154 125.021 89.1154ZM125.021 88.0897C125.44 88.0897 125.833 87.9915 126.2 87.7949C126.568 87.5983 126.863 87.3034 127.085 86.9103C127.316 86.5171 127.431 86.0385 127.431 85.4744C127.431 84.9103 127.32 84.4316 127.098 84.0385C126.876 83.6453 126.585 83.3547 126.226 83.1667C125.867 82.9701 125.478 82.8718 125.059 82.8718C124.632 82.8718 124.239 82.9701 123.88 83.1667C123.53 83.3547 123.248 83.6453 123.034 84.0385C122.82 84.4316 122.713 84.9103 122.713 85.4744C122.713 86.047 122.816 86.5299 123.021 86.9231C123.235 87.3162 123.517 87.6111 123.867 87.8077C124.218 87.9957 124.602 88.0897 125.021 88.0897ZM134.081 89L131.324 85.8974V89H130.158V79.5128H131.324V85.0898L134.029 81.9744H135.658L132.35 85.4744L135.67 89H134.081ZM137.358 80.8334C137.136 80.8334 136.948 80.7564 136.794 80.6026C136.64 80.4487 136.563 80.2607 136.563 80.0385C136.563 79.8163 136.64 79.6282 136.794 79.4744C136.948 79.3205 137.136 79.2436 137.358 79.2436C137.572 79.2436 137.751 79.3205 137.897 79.4744C138.05 79.6282 138.127 79.8163 138.127 80.0385C138.127 80.2607 138.05 80.4487 137.897 80.6026C137.751 80.7564 137.572 80.8334 137.358 80.8334ZM137.922 81.9744V89H136.756V81.9744H137.922ZM143.334 81.8462C144.188 81.8462 144.881 82.1069 145.411 82.6282C145.94 83.141 146.205 83.8846 146.205 84.859V89H145.052V85.0257C145.052 84.3248 144.876 83.7906 144.526 83.4231C144.176 83.047 143.697 82.859 143.09 82.859C142.475 82.859 141.983 83.0513 141.616 83.4359C141.257 83.8205 141.077 84.3804 141.077 85.1154V89H139.911V81.9744H141.077V82.9744C141.308 82.6154 141.62 82.3376 142.013 82.141C142.415 81.9445 142.855 81.8462 143.334 81.8462ZM151.009 81.859C151.615 81.859 152.145 81.9915 152.598 82.2564C153.06 82.5214 153.402 82.8547 153.624 83.2564V81.9744H154.803V89.1538C154.803 89.7949 154.667 90.3632 154.393 90.859C154.12 91.3632 153.727 91.7564 153.214 92.0385C152.709 92.3205 152.12 92.4615 151.445 92.4615C150.521 92.4615 149.752 92.2436 149.137 91.8077C148.521 91.3718 148.158 90.7778 148.047 90.0256H149.201C149.329 90.453 149.594 90.7949 149.996 91.0513C150.398 91.3162 150.88 91.4487 151.445 91.4487C152.086 91.4487 152.607 91.2479 153.009 90.8461C153.419 90.4444 153.624 89.8803 153.624 89.1538V87.6795C153.393 88.0897 153.051 88.4316 152.598 88.7051C152.145 88.9786 151.615 89.1154 151.009 89.1154C150.385 89.1154 149.816 88.9615 149.304 88.6538C148.799 88.3462 148.402 87.9145 148.111 87.359C147.821 86.8034 147.675 86.1709 147.675 85.4615C147.675 84.7436 147.821 84.1154 148.111 83.5769C148.402 83.0299 148.799 82.6069 149.304 82.3077C149.816 82.0086 150.385 81.859 151.009 81.859ZM153.624 85.4744C153.624 84.9445 153.517 84.4829 153.303 84.0898C153.09 83.6966 152.799 83.3975 152.432 83.1923C152.073 82.9786 151.675 82.8718 151.239 82.8718C150.804 82.8718 150.406 82.9744 150.047 83.1795C149.688 83.3846 149.402 83.6838 149.188 84.0769C148.974 84.4701 148.868 84.9316 148.868 85.4615C148.868 86 148.974 86.4701 149.188 86.8718C149.402 87.265 149.688 87.5684 150.047 87.7821C150.406 87.9872 150.804 88.0897 151.239 88.0897C151.675 88.0897 152.073 87.9872 152.432 87.7821C152.799 87.5684 153.09 87.265 153.303 86.8718C153.517 86.4701 153.624 86.0043 153.624 85.4744ZM169.257 80.1282V89H168.09V82.3846L165.142 89H164.321L161.36 82.3718V89H160.193V80.1282H161.449L164.731 87.4615L168.013 80.1282H169.257ZM170.8 85.4615C170.8 84.7436 170.945 84.1154 171.236 83.5769C171.526 83.0299 171.924 82.6069 172.428 82.3077C172.941 82.0086 173.509 81.859 174.133 81.859C174.748 81.859 175.283 81.9915 175.736 82.2564C176.189 82.5214 176.526 82.8547 176.748 83.2564V81.9744H177.928V89H176.748V87.6923C176.518 88.1026 176.172 88.4444 175.71 88.7179C175.257 88.9829 174.727 89.1154 174.12 89.1154C173.496 89.1154 172.932 88.9615 172.428 88.6538C171.924 88.3462 171.526 87.9145 171.236 87.359C170.945 86.8034 170.8 86.1709 170.8 85.4615ZM176.748 85.4744C176.748 84.9445 176.642 84.4829 176.428 84.0898C176.214 83.6966 175.924 83.3975 175.556 83.1923C175.197 82.9786 174.8 82.8718 174.364 82.8718C173.928 82.8718 173.531 82.9744 173.172 83.1795C172.813 83.3846 172.526 83.6838 172.313 84.0769C172.099 84.4701 171.992 84.9316 171.992 85.4615C171.992 86 172.099 86.4701 172.313 86.8718C172.526 87.265 172.813 87.5684 173.172 87.7821C173.531 87.9872 173.928 88.0897 174.364 88.0897C174.8 88.0897 175.197 87.9872 175.556 87.7821C175.924 87.5684 176.214 87.265 176.428 86.8718C176.642 86.4701 176.748 86.0043 176.748 85.4744ZM179.464 85.4615C179.464 84.7436 179.609 84.1154 179.899 83.5769C180.19 83.0299 180.588 82.6069 181.092 82.3077C181.605 82.0086 182.177 81.859 182.81 81.859C183.357 81.859 183.865 81.9872 184.335 82.2436C184.805 82.4915 185.164 82.8205 185.412 83.2308V79.5128H186.592V89H185.412V87.6795C185.182 88.0983 184.84 88.4444 184.387 88.7179C183.934 88.9829 183.404 89.1154 182.797 89.1154C182.173 89.1154 181.605 88.9615 181.092 88.6538C180.588 88.3462 180.19 87.9145 179.899 87.359C179.609 86.8034 179.464 86.1709 179.464 85.4615ZM185.412 85.4744C185.412 84.9445 185.305 84.4829 185.092 84.0898C184.878 83.6966 184.587 83.3975 184.22 83.1923C183.861 82.9786 183.464 82.8718 183.028 82.8718C182.592 82.8718 182.194 82.9744 181.835 83.1795C181.476 83.3846 181.19 83.6838 180.976 84.0769C180.763 84.4701 180.656 84.9316 180.656 85.4615C180.656 86 180.763 86.4701 180.976 86.8718C181.19 87.265 181.476 87.5684 181.835 87.7821C182.194 87.9872 182.592 88.0897 183.028 88.0897C183.464 88.0897 183.861 87.9872 184.22 87.7821C184.587 87.5684 184.878 87.265 185.092 86.8718C185.305 86.4701 185.412 86.0043 185.412 85.4744ZM194.974 85.218C194.974 85.4402 194.961 85.6752 194.935 85.9231H189.32C189.362 86.6154 189.597 87.1581 190.025 87.5513C190.461 87.9359 190.986 88.1282 191.602 88.1282C192.106 88.1282 192.525 88.0128 192.858 87.7821C193.2 87.5427 193.439 87.2265 193.576 86.8333H194.833C194.644 87.5086 194.268 88.0598 193.704 88.4872C193.14 88.906 192.439 89.1154 191.602 89.1154C190.935 89.1154 190.337 88.9658 189.807 88.6667C189.286 88.3675 188.875 87.9444 188.576 87.3974C188.277 86.8419 188.127 86.2009 188.127 85.4744C188.127 84.7479 188.273 84.1111 188.563 83.5641C188.854 83.0171 189.26 82.5983 189.781 82.3077C190.311 82.0086 190.918 81.859 191.602 81.859C192.268 81.859 192.858 82.0043 193.371 82.2949C193.884 82.5855 194.277 82.9872 194.55 83.5C194.833 84.0043 194.974 84.5769 194.974 85.218ZM193.768 84.9744C193.768 84.5299 193.67 84.1496 193.474 83.8333C193.277 83.5086 193.008 83.265 192.666 83.1026C192.333 82.9316 191.961 82.8462 191.55 82.8462C190.961 82.8462 190.456 83.0342 190.038 83.4103C189.627 83.7863 189.392 84.3077 189.333 84.9744H193.768ZM201.098 81.0128V84H204.355V84.9615H201.098V88.0385H204.739V89H199.931V80.0513H204.739V81.0128H201.098ZM206.069 85.4615C206.069 84.7436 206.214 84.1154 206.504 83.5769C206.795 83.0299 207.192 82.6069 207.697 82.3077C208.21 82.0086 208.778 81.859 209.402 81.859C210.017 81.859 210.551 81.9915 211.004 82.2564C211.457 82.5214 211.795 82.8547 212.017 83.2564V81.9744H213.197V89H212.017V87.6923C211.787 88.1026 211.44 88.4444 210.979 88.7179C210.526 88.9829 209.996 89.1154 209.389 89.1154C208.765 89.1154 208.201 88.9615 207.697 88.6538C207.192 88.3462 206.795 87.9145 206.504 87.359C206.214 86.8034 206.069 86.1709 206.069 85.4615ZM212.017 85.4744C212.017 84.9445 211.91 84.4829 211.697 84.0898C211.483 83.6966 211.192 83.3975 210.825 83.1923C210.466 82.9786 210.069 82.8718 209.633 82.8718C209.197 82.8718 208.799 82.9744 208.44 83.1795C208.081 83.3846 207.795 83.6838 207.581 84.0769C207.368 84.4701 207.261 84.9316 207.261 85.4615C207.261 86 207.368 86.4701 207.581 86.8718C207.795 87.265 208.081 87.5684 208.44 87.7821C208.799 87.9872 209.197 88.0897 209.633 88.0897C210.069 88.0897 210.466 87.9872 210.825 87.7821C211.192 87.5684 211.483 87.265 211.697 86.8718C211.91 86.4701 212.017 86.0043 212.017 85.4744ZM217.655 89.1154C217.117 89.1154 216.634 89.0256 216.207 88.8462C215.779 88.6581 215.442 88.4017 215.194 88.0769C214.946 87.7436 214.809 87.3633 214.784 86.9359H215.989C216.023 87.2863 216.185 87.5727 216.476 87.7949C216.775 88.0171 217.164 88.1282 217.643 88.1282C218.087 88.1282 218.438 88.0299 218.694 87.8333C218.95 87.6368 219.079 87.3889 219.079 87.0897C219.079 86.7821 218.942 86.5556 218.668 86.4103C218.395 86.2564 217.972 86.1068 217.399 85.9615C216.878 85.8248 216.45 85.688 216.117 85.5513C215.792 85.406 215.51 85.1966 215.271 84.9231C215.04 84.641 214.925 84.2735 214.925 83.8205C214.925 83.4616 215.032 83.1325 215.245 82.8333C215.459 82.5342 215.762 82.2992 216.155 82.1282C216.549 81.9487 216.997 81.859 217.502 81.859C218.279 81.859 218.908 82.0556 219.386 82.4487C219.865 82.8419 220.121 83.3804 220.155 84.0641H218.989C218.963 83.6966 218.814 83.4017 218.54 83.1795C218.275 82.9573 217.916 82.8462 217.463 82.8462C217.044 82.8462 216.711 82.9359 216.463 83.1154C216.215 83.2949 216.091 83.5299 216.091 83.8205C216.091 84.0513 216.164 84.2436 216.309 84.3974C216.463 84.5427 216.651 84.6624 216.873 84.7564C217.104 84.8419 217.42 84.9402 217.822 85.0513C218.326 85.188 218.737 85.3248 219.053 85.4615C219.369 85.5898 219.638 85.7863 219.861 86.0513C220.091 86.3162 220.211 86.6624 220.22 87.0897C220.22 87.4744 220.113 87.8205 219.899 88.1282C219.685 88.4359 219.382 88.6795 218.989 88.859C218.604 89.0299 218.16 89.1154 217.655 89.1154ZM227.918 81.9744L223.687 92.3077H222.482L223.867 88.9231L221.033 81.9744H222.328L224.533 87.6667L226.713 81.9744H227.918Z" fill="white"/>
</svg>
