<svg width="167" height="61" viewBox="0 0 167 61" fill="none" xmlns="http://www.w3.org/2000/svg">
<path d="M141.861 23.8945L146.755 29.8475L145.337 32.0167L138.623 42.2837H129.837L135.622 33.4372L139.781 27.0795L141.861 23.8945Z" fill="#999999"/>
<path d="M157.632 13.2138L156.681 14.6687L149.681 25.3728L147.644 28.4889L142.749 22.5359L144.125 20.4335L150.515 10.6602L150.626 10.4902H157.249C157.45 10.9455 157.48 11.4696 157.593 11.7347C157.755 12.1191 157.632 13.2138 157.632 13.2138Z" fill="#999999"/>
<path d="M2.03765 17.9395C3.3954 15.479 5.29141 13.5628 7.72161 12.1868C10.1518 10.8129 12.9078 10.127 15.9875 10.127C19.7613 10.127 22.9928 11.1225 25.68 13.1156C28.3672 15.1087 30.1641 17.8262 31.0706 21.2681H22.5558C21.9224 19.9407 21.024 18.929 19.8605 18.2329C18.697 17.5389 17.3757 17.1908 15.8985 17.1908C13.5128 17.1908 11.5804 18.0225 10.1012 19.6817C8.62206 21.343 7.88147 23.5607 7.88147 26.3389C7.88147 29.1171 8.62004 31.3368 10.1012 32.9961C11.5804 34.6573 13.5128 35.4869 15.8985 35.4869C17.3777 35.4869 18.699 35.1409 19.8605 34.4449C21.022 33.7508 21.9204 32.7391 22.5558 31.4097H31.0706C30.1641 34.8516 28.3672 37.563 25.68 39.5399C22.9928 41.5168 19.7613 42.5063 15.9875 42.5063C12.9078 42.5063 10.1518 41.8204 7.72161 40.4464C5.29141 39.0725 3.3954 37.1623 2.03765 34.718C0.679889 32.2717 0 29.4793 0 26.3389C0 23.2005 0.679889 20.4 2.03765 17.9395Z" fill="#F36F21"/>
<path d="M43.5698 10.4883V42.2808H35.8259V10.4883H43.5698Z" fill="#F36F21"/>
<path d="M70.2901 20.5436C69.7154 19.4873 68.8939 18.68 67.8214 18.1215C66.749 17.563 65.4883 17.2838 64.0395 17.2838C61.5324 17.2838 59.5251 18.1073 58.0156 19.7524C56.5061 21.3975 55.7513 23.5949 55.7513 26.3428C55.7513 29.2728 56.5445 31.5593 58.1289 33.2043C59.7133 34.8494 61.8946 35.6729 64.6729 35.6729C66.575 35.6729 68.1836 35.1894 69.4969 34.2242C70.8101 33.259 71.7692 31.8689 72.3722 30.0579H62.5442V24.3517H79.3917V31.5532C78.817 33.4856 77.8437 35.2824 76.4698 36.9417C75.0959 38.6029 73.3516 39.9465 71.2391 40.9724C69.1245 42.0003 66.7389 42.5122 64.084 42.5122C60.9436 42.5122 58.1431 41.8263 55.6825 40.4524C53.222 39.0784 51.3037 37.1683 49.9298 34.7239C48.5558 32.2776 47.8699 29.4852 47.8699 26.3448C47.8699 23.2044 48.5558 20.4039 49.9298 17.9434C51.3037 15.4829 53.2139 13.5667 55.6583 12.1907C58.1047 10.8168 60.8971 10.1309 64.0375 10.1309C67.8417 10.1309 71.0489 11.0515 73.6612 12.8929C76.2715 14.7342 78.0016 17.2858 78.8474 20.5476H70.2901V20.5436Z" fill="#F36F21"/>
<path d="M112.139 42.2828H104.395L91.4431 22.6715V42.2828H83.6992V10.4883H91.4431L104.395 30.1887V10.4883H112.139V42.2828Z" fill="#F36F21"/>
<path d="M125.499 10.4883V42.2808H117.755V10.4883H125.499Z" fill="#F36F21"/>
<path d="M141.804 37.3844L138.603 42.2832H134.983L139.18 35.709L141.804 37.3844Z" fill="#E05D26"/>
<path d="M139.18 35.7079L134.983 42.2821H129.837L135.622 33.4355L139.18 35.7079Z" fill="#F36F21"/>
<path d="M157.632 13.2138L156.685 14.6707L156.681 14.6687L150.515 10.6602L150.511 10.6582L151.434 9.23771C151.834 8.73387 152.211 9.04144 152.668 8.75006C153.125 8.4607 153.605 8.51534 154.001 8.72982C154.396 8.94633 154.779 8.8654 155.234 8.80065C155.689 8.73387 156.28 9.49064 156.861 9.96008C157.039 10.1037 157.162 10.2899 157.249 10.4902C157.45 10.9455 157.48 11.4696 157.593 11.7347C157.755 12.1191 157.632 13.2138 157.632 13.2138Z" fill="#676867"/>
<path d="M153.868 10.0566C153.868 10.0566 153.494 10.1275 153.5 10.2529C153.506 10.3784 153.613 10.2893 153.607 10.3966C153.601 10.5038 153.494 10.6637 153.601 10.7183C153.708 10.7729 153.828 10.6293 153.868 10.5807C153.911 10.5322 154.006 10.431 154.012 10.5504C154.018 10.6697 153.947 10.8417 154.089 10.8964C154.23 10.951 154.327 10.7001 154.267 10.5564C154.206 10.4128 153.957 10.4128 153.939 10.3237C153.921 10.2347 153.789 10.2165 153.826 10.174C153.862 10.1335 153.862 10.1052 153.868 10.0566Z" fill="#999999"/>
<path d="M155.825 9.53125C155.825 9.53125 155.451 9.60207 155.457 9.72753C155.463 9.85298 155.57 9.76395 155.564 9.87119C155.558 9.97843 155.451 10.1383 155.558 10.1929C155.665 10.2476 155.785 10.1039 155.825 10.0553C155.868 10.0068 155.963 9.90559 155.969 10.025C155.975 10.1444 155.904 10.3163 156.046 10.371C156.189 10.4236 156.284 10.1747 156.224 10.031C156.165 9.88738 155.914 9.88737 155.896 9.79834C155.878 9.70931 155.746 9.6911 155.783 9.64861C155.819 9.60814 155.819 9.57981 155.825 9.53125Z" fill="#999999"/>
<path d="M155.556 12.4597C155.556 12.4597 155.934 12.4111 155.936 12.2857C155.938 12.1602 155.825 12.2432 155.839 12.1359C155.851 12.0287 155.969 11.8749 155.866 11.8162C155.762 11.7575 155.635 11.8911 155.59 11.9356C155.546 11.9801 155.445 12.0752 155.447 11.9558C155.449 11.8365 155.53 11.6685 155.39 11.6058C155.25 11.5431 155.141 11.7879 155.192 11.9336C155.242 12.0793 155.491 12.0955 155.503 12.1845C155.516 12.2755 155.645 12.2998 155.607 12.3403C155.566 12.3828 155.564 12.4131 155.556 12.4597Z" fill="#999999"/>
<path d="M156.347 13.2361C156.347 13.2361 155.977 13.141 155.93 13.2563C155.884 13.3716 156.017 13.3372 155.967 13.4303C155.916 13.5254 155.75 13.6246 155.825 13.7197C155.9 13.8128 156.068 13.7359 156.127 13.7096C156.185 13.6833 156.313 13.6327 156.268 13.744C156.224 13.8553 156.084 13.9807 156.191 14.09C156.299 14.1992 156.491 14.0131 156.497 13.8593C156.503 13.7055 156.278 13.5983 156.299 13.5092C156.321 13.4202 156.209 13.3494 156.26 13.3271C156.309 13.3049 156.321 13.2765 156.347 13.2361Z" fill="#999999"/>
<path d="M153.498 12.153C153.498 12.153 153.877 12.1045 153.879 11.979C153.881 11.8536 153.767 11.9365 153.781 11.8293C153.794 11.722 153.911 11.5683 153.808 11.5096C153.705 11.4489 153.577 11.5844 153.533 11.629C153.488 11.6735 153.387 11.7686 153.389 11.6492C153.391 11.5298 153.472 11.3619 153.332 11.2991C153.193 11.2364 153.083 11.4812 153.134 11.6269C153.185 11.7726 153.433 11.7888 153.446 11.8778C153.458 11.9689 153.587 11.9932 153.549 12.0337C153.508 12.0761 153.506 12.1065 153.498 12.153Z" fill="#999999"/>
<path d="M155.034 10.1387C155.034 10.1387 154.838 10.0861 154.909 10.3653C154.98 10.6446 155.073 10.6871 154.963 10.7882C154.854 10.8894 155.253 10.8004 155.176 10.7113C155.099 10.6223 155.046 10.5333 155.065 10.4139C155.083 10.2945 155.075 10.1407 155.034 10.1387Z" fill="#999999"/>
<path d="M154.571 11.459C154.571 11.459 154.374 11.4064 154.445 11.6856C154.516 11.9649 154.609 12.0074 154.5 12.1085C154.39 12.2097 154.789 12.1207 154.712 12.0317C154.635 11.9426 154.583 11.8536 154.601 11.7342C154.617 11.6148 154.611 11.4631 154.571 11.459Z" fill="#999999"/>
<path d="M156.384 11.2071C156.384 11.2071 156.187 11.1545 156.258 11.4337C156.329 11.7129 156.422 11.7554 156.313 11.8566C156.205 11.9578 156.602 11.8687 156.525 11.7797C156.448 11.6907 156.396 11.6016 156.414 11.4823C156.43 11.3629 156.424 11.2111 156.384 11.2071Z" fill="#999999"/>
<path d="M152.416 10.1348C152.296 10.1328 152.333 10.4241 152.416 10.4828C152.499 10.5435 152.385 10.6568 152.416 10.7277C152.446 10.7985 152.618 10.8936 152.63 10.7641C152.642 10.6346 152.547 10.503 152.541 10.4181C152.535 10.3351 152.529 10.1368 152.416 10.1348Z" fill="#999999"/>
<path d="M153.314 9.27341C153.44 9.26734 153.682 9.26734 153.694 9.40493C153.707 9.54253 153.486 9.58907 153.456 9.5486C153.425 9.50611 153.223 9.37661 153.14 9.37661C153.057 9.37661 153.314 9.27341 153.314 9.27341Z" fill="#999999"/>
<path d="M156.634 10.7798C156.766 10.9173 156.705 11.1419 156.687 11.1602C156.669 11.1784 156.574 11.2492 156.556 11.1602C156.537 11.0711 156.592 10.9882 156.503 10.8688C156.414 10.7494 156.396 10.6543 156.438 10.6543C156.481 10.6543 156.634 10.7798 156.634 10.7798Z" fill="#999999"/>
<path d="M152.177 9.5278C152.308 9.66539 152.247 9.89 152.229 9.90821C152.211 9.92642 152.116 9.99724 152.098 9.90821C152.08 9.81918 152.134 9.73621 152.045 9.61683C151.956 9.49745 151.938 9.40234 151.98 9.40234C152.023 9.40234 152.177 9.5278 152.177 9.5278Z" fill="#999999"/>
<path d="M157.23 12.4934C157.23 12.6472 157.07 12.714 157.064 12.892C157.058 13.0701 156.926 13.0519 156.904 13.0458C156.88 13.0398 156.821 12.886 156.88 12.8313C156.938 12.7767 157.039 12.7605 157.041 12.6472C157.045 12.5339 157.141 12.4327 157.141 12.4327C157.141 12.4327 157.23 12.368 157.23 12.4934Z" fill="#999999"/>
<path d="M155.588 12.8118C155.588 12.9656 155.429 13.0323 155.423 13.2104C155.416 13.3885 155.285 13.3703 155.263 13.3642C155.238 13.3581 155.18 13.2043 155.238 13.1497C155.297 13.0971 155.396 13.0789 155.4 12.9656C155.404 12.8523 155.499 12.7511 155.499 12.7511C155.499 12.7511 155.588 12.6863 155.588 12.8118Z" fill="#999999"/>
<path d="M151.446 10.1895C151.446 10.1895 151.124 10.3331 151.268 10.4343C151.412 10.5355 151.685 10.6184 151.703 10.5173C151.721 10.4161 151.651 10.3675 151.578 10.3331C151.505 10.2967 151.511 10.2016 151.446 10.1895Z" fill="#999999"/>
<path d="M154.767 9.3457C154.826 9.3457 155.046 9.41652 155.04 9.48937C155.034 9.56019 155.095 9.66743 154.902 9.59054C154.71 9.51365 154.67 9.43878 154.556 9.48127C154.443 9.52376 154.312 9.45901 154.348 9.41854C154.384 9.37808 154.767 9.3457 154.767 9.3457Z" fill="#999999"/>
<path d="M149.811 25.1737L147.625 28.5265L142.354 22.1364L131.427 8.88281L143.831 19.8742L149.811 25.1737Z" fill="#999999"/>
<path d="M160.104 46.1101L145.984 33.5464L139.388 27.6784L141.86 23.8945L147.672 30.9706L160.104 46.1101Z" fill="#999999"/>
<path d="M156.68 14.6686L155.416 16.601L155.397 16.6294L153.728 15.6196C153.712 15.5751 153.692 15.5347 153.657 15.5144C153.597 15.478 153.433 15.4072 153.275 15.3465L152.745 15.0268C152.589 14.8912 152.445 14.7536 152.413 14.7334C152.382 14.7152 152.31 14.7152 152.225 14.7111L151.632 14.353C151.609 14.3307 151.587 14.3125 151.563 14.2963C151.429 14.2113 151.314 14.1344 151.221 14.0636C151.126 13.9928 151.118 13.8633 150.934 13.8046C150.752 13.7459 150.296 13.2603 150.144 13.1753C149.993 13.0903 149.837 13.0155 149.663 12.9527C149.515 12.9001 149.216 12.8536 149.127 12.8394L149.106 12.8273L149.1 12.8232L150.515 10.6602L156.68 14.6686Z" fill="#676867"/>
<path d="M155.416 16.6006C155.414 16.6128 155.412 16.6188 155.412 16.6188C155.412 16.6188 155.226 16.9062 155.185 16.9648C155.147 17.0255 155.234 16.6917 155.139 16.5541C155.046 16.4165 154.425 16.3032 154.364 16.206C154.301 16.1069 154.117 15.9956 154.046 15.947C153.975 15.8985 153.894 15.8479 153.814 15.7811C153.769 15.7427 153.751 15.6779 153.729 15.6192C153.712 15.5747 153.692 15.5343 153.658 15.514C153.597 15.4776 153.433 15.4068 153.275 15.3461C153.223 15.3258 153.17 15.3056 153.121 15.2914C153.03 15.2631 152.883 15.1458 152.745 15.0264C152.589 14.8908 152.446 14.7532 152.413 14.733C152.383 14.7148 152.31 14.7148 152.225 14.7107C152.13 14.7087 152.021 14.6986 151.936 14.6561C151.804 14.5913 151.729 14.4477 151.632 14.3526C151.61 14.3303 151.588 14.3121 151.563 14.2959C151.43 14.2109 151.315 14.134 151.221 14.0632C151.126 13.9924 151.118 13.8629 150.934 13.8042C150.752 13.7455 150.297 13.2599 150.145 13.1749C149.993 13.0899 149.837 13.0151 149.663 12.9523C149.516 12.8997 149.216 12.8532 149.127 12.839C149.111 12.837 149.101 12.835 149.101 12.835L149.107 12.8269L149.247 12.6104C149.247 12.6104 149.951 12.5031 150.26 13.0373C150.57 13.5735 150.997 13.7779 151.165 13.7536C151.331 13.7293 151.373 13.9944 151.501 14.0774C151.626 14.1583 151.735 14.0713 151.772 14.1016C151.806 14.134 151.691 14.0025 151.855 14.1563C152.021 14.3121 152.197 14.6156 152.27 14.5772C152.342 14.5387 152.367 14.4922 152.498 14.5812C152.628 14.6682 152.899 14.8159 152.925 14.9191C152.954 15.0223 153.425 15.2044 153.425 15.2044C153.425 15.2044 153.708 15.2732 153.775 15.3157C153.842 15.3582 153.961 15.3582 154.032 15.4068C154.105 15.4553 154.2 15.5181 154.234 15.6112C154.271 15.7042 154.39 15.8479 154.39 15.8479L154.795 16.0138C154.795 16.0138 155.208 16.0624 155.299 16.0138C155.39 15.9653 155.485 15.8358 155.521 15.9551C155.552 16.0604 155.442 16.5015 155.416 16.6006Z" fill="#E23A26"/>
<path d="M153.361 14.8977C153.361 14.8977 153.736 14.8269 153.73 14.7014C153.724 14.576 153.616 14.665 153.622 14.5578C153.628 14.4505 153.736 14.2907 153.628 14.236C153.521 14.1834 153.402 14.3251 153.361 14.3736C153.319 14.4222 153.224 14.5234 153.218 14.404C153.212 14.2846 153.282 14.1126 153.141 14.058C152.997 14.0054 152.902 14.2542 152.963 14.3979C153.021 14.5416 153.272 14.5416 153.291 14.6306C153.309 14.7196 153.44 14.7378 153.404 14.7803C153.367 14.8208 153.367 14.8512 153.361 14.8977Z" fill="#999999"/>
<path d="M153.902 13.47C153.902 13.47 154.276 13.3991 154.27 13.2737C154.264 13.1482 154.157 13.2373 154.163 13.13C154.169 13.0228 154.276 12.8629 154.169 12.8083C154.062 12.7557 153.942 12.8973 153.902 12.9459C153.861 12.9945 153.764 13.0956 153.758 12.9762C153.752 12.8569 153.823 12.6849 153.681 12.6302C153.538 12.5776 153.443 12.8265 153.503 12.9702C153.562 13.1138 153.813 13.1138 153.831 13.2029C153.849 13.2919 153.981 13.3101 153.944 13.3526C153.908 13.3951 153.908 13.4214 153.902 13.47Z" fill="#999999"/>
<path d="M151.674 12.4961C151.674 12.4961 151.296 12.5447 151.293 12.6701C151.291 12.7956 151.405 12.7126 151.391 12.8198C151.378 12.9271 151.261 13.0809 151.364 13.1396C151.468 13.2003 151.595 13.0647 151.64 13.0202C151.684 12.9757 151.785 12.8806 151.783 12.9999C151.781 13.1193 151.7 13.2873 151.84 13.35C151.979 13.4127 152.089 13.1679 152.038 13.0222C151.988 12.8765 151.739 12.8603 151.727 12.7713C151.714 12.6802 151.585 12.6559 151.623 12.6155C151.662 12.573 151.664 12.5447 151.674 12.4961Z" fill="#999999"/>
<path d="M150.881 11.7168C150.881 11.7168 151.251 11.8119 151.298 11.6965C151.344 11.5812 151.211 11.6156 151.261 11.5225C151.312 11.4274 151.478 11.3283 151.403 11.2332C151.328 11.1401 151.16 11.217 151.101 11.2433C151.043 11.2696 150.915 11.3202 150.96 11.2089C151.004 11.0996 151.144 10.9721 151.037 10.8629C150.929 10.7536 150.737 10.9398 150.731 11.0935C150.725 11.2473 150.95 11.3546 150.929 11.4436C150.907 11.5326 151.018 11.6035 150.968 11.6257C150.919 11.65 150.907 11.6763 150.881 11.7168Z" fill="#999999"/>
<path d="M152.659 13.4952C152.659 13.4952 152.856 13.5479 152.785 13.2686C152.714 12.9894 152.621 12.9469 152.73 12.8457C152.839 12.7445 152.441 12.8336 152.518 12.9226C152.595 13.0116 152.647 13.1007 152.629 13.2201C152.611 13.3394 152.617 13.4912 152.659 13.4952Z" fill="#999999"/>
<path d="M154.813 14.8184C154.932 14.8205 154.896 14.5291 154.813 14.4704C154.73 14.4097 154.843 14.2964 154.813 14.2256C154.782 14.1547 154.61 14.0596 154.598 14.1891C154.586 14.3186 154.681 14.4502 154.687 14.5352C154.695 14.6181 154.701 14.8164 154.813 14.8184Z" fill="#999999"/>
<path d="M155.051 15.4263C154.919 15.2887 154.98 15.0641 154.998 15.0459C155.017 15.0277 155.112 14.9569 155.13 15.0459C155.148 15.1349 155.094 15.2179 155.183 15.3373C155.272 15.4567 155.29 15.5518 155.247 15.5518C155.205 15.5518 155.051 15.4263 155.051 15.4263Z" fill="#999999"/>
<path d="M149.999 12.4622C149.999 12.3085 150.158 12.2417 150.164 12.0636C150.171 11.8856 150.302 11.9038 150.324 11.9098C150.349 11.9159 150.407 12.0697 150.349 12.1243C150.29 12.179 150.189 12.1951 150.187 12.3085C150.183 12.4218 150.088 12.5229 150.088 12.5229C150.088 12.5229 149.999 12.5857 149.999 12.4622Z" fill="#999999"/>
<path d="M151.642 12.1439C151.642 11.9901 151.801 11.9233 151.808 11.7453C151.814 11.5672 151.945 11.5854 151.967 11.5915C151.992 11.5975 152.05 11.7513 151.992 11.806C151.933 11.8586 151.832 11.8768 151.83 11.9901C151.826 12.1034 151.731 12.2046 151.731 12.2046C151.731 12.2046 151.642 12.2693 151.642 12.1439Z" fill="#999999"/>
<path d="M155.784 14.7644C155.784 14.7644 156.105 14.6208 155.962 14.5196C155.818 14.4184 155.545 14.3354 155.527 14.4366C155.508 14.5378 155.579 14.5864 155.652 14.6208C155.723 14.6572 155.719 14.7523 155.784 14.7644Z" fill="#999999"/>
<path d="M160.298 2.88955V3.27287H159.314V6.5H158.842V3.27287H157.853V2.88955H160.298ZM164.541 2.91545V6.5H164.069V3.82712L162.878 6.5H162.546L161.35 3.82194V6.5H160.878V2.91545H161.386L162.712 5.8784L164.038 2.91545H164.541Z" fill="#333333"/>
<path d="M32.8206 55.9807L31.7406 54.9007C31.4764 54.9732 31.2071 55.0095 30.9325 55.0095C30.4301 55.0095 29.9716 54.8929 29.5572 54.6598C29.1428 54.4215 28.8139 54.0926 28.5704 53.673C28.3322 53.2483 28.213 52.7717 28.213 52.2434C28.213 51.715 28.3322 51.241 28.5704 50.8214C28.8139 50.3967 29.1428 50.0678 29.5572 49.8347C29.9716 49.5964 30.4301 49.4772 30.9325 49.4772C31.4402 49.4772 31.9012 49.5964 32.3156 49.8347C32.73 50.0678 33.0563 50.3941 33.2946 50.8137C33.5329 51.2333 33.652 51.7098 33.652 52.2434C33.652 52.7614 33.538 53.2276 33.3101 53.642C33.0822 54.0563 32.7688 54.3827 32.37 54.621L33.7375 55.9807H32.8206ZM28.9356 52.2434C28.9356 52.6733 29.0211 53.0514 29.192 53.3778C29.3682 53.7041 29.6064 53.9553 29.9069 54.1315C30.2125 54.3076 30.5544 54.3956 30.9325 54.3956C31.3107 54.3956 31.6499 54.3076 31.9504 54.1315C32.256 53.9553 32.4943 53.7041 32.6652 53.3778C32.8413 53.0514 32.9294 52.6733 32.9294 52.2434C32.9294 51.8082 32.8413 51.4301 32.6652 51.1089C32.4943 50.7826 32.2586 50.5314 31.9581 50.3552C31.6577 50.1791 31.3158 50.0911 30.9325 50.0911C30.5492 50.0911 30.2073 50.1791 29.9069 50.3552C29.6064 50.5314 29.3682 50.7826 29.192 51.1089C29.0211 51.4301 28.9356 51.8082 28.9356 52.2434ZM38.3768 50.6971V54.9551H37.6698V54.3257C37.5351 54.5433 37.346 54.7142 37.1025 54.8385C36.8643 54.9577 36.6001 55.0172 36.31 55.0172C35.9785 55.0172 35.6806 54.9499 35.4165 54.8152C35.1523 54.6754 34.9425 54.4682 34.7871 54.1936C34.6369 53.9191 34.5618 53.585 34.5618 53.1913V50.6971H35.2611V53.0981C35.2611 53.5176 35.3673 53.8414 35.5796 54.0693C35.792 54.292 36.0821 54.4034 36.4499 54.4034C36.828 54.4034 37.1259 54.2869 37.3434 54.0538C37.561 53.8207 37.6698 53.4814 37.6698 53.0359V50.6971H38.3768ZM39.9359 50.0056C39.8012 50.0056 39.6872 49.959 39.594 49.8657C39.5007 49.7725 39.4541 49.6585 39.4541 49.5239C39.4541 49.3892 39.5007 49.2752 39.594 49.182C39.6872 49.0887 39.8012 49.0421 39.9359 49.0421C40.0654 49.0421 40.1741 49.0887 40.2622 49.182C40.3554 49.2752 40.4021 49.3892 40.4021 49.5239C40.4021 49.6585 40.3554 49.7725 40.2622 49.8657C40.1741 49.959 40.0654 50.0056 39.9359 50.0056ZM40.2777 50.6971V54.9551H39.5707V50.6971H40.2777ZM42.3453 51.2799V53.7896C42.3453 53.9968 42.3893 54.1444 42.4774 54.2325C42.5654 54.3153 42.7182 54.3568 42.9358 54.3568H43.4564V54.9551H42.8193C42.4256 54.9551 42.1303 54.8644 41.9335 54.6831C41.7366 54.5018 41.6382 54.204 41.6382 53.7896V51.2799H41.0865V50.6971H41.6382V49.6249H42.3453V50.6971H43.4564V51.2799H42.3453ZM45.1756 51.2799V53.7896C45.1756 53.9968 45.2196 54.1444 45.3077 54.2325C45.3957 54.3153 45.5485 54.3568 45.7661 54.3568H46.2867V54.9551H45.6495C45.2559 54.9551 44.9606 54.8644 44.7638 54.6831C44.5669 54.5018 44.4685 54.204 44.4685 53.7896V51.2799H43.9168V50.6971H44.4685V49.6249H45.1756V50.6971H46.2867V51.2799H45.1756ZM47.5086 50.0056C47.3739 50.0056 47.2599 49.959 47.1667 49.8657C47.0734 49.7725 47.0268 49.6585 47.0268 49.5239C47.0268 49.3892 47.0734 49.2752 47.1667 49.182C47.2599 49.0887 47.3739 49.0421 47.5086 49.0421C47.6381 49.0421 47.7468 49.0887 47.8349 49.182C47.9281 49.2752 47.9748 49.3892 47.9748 49.5239C47.9748 49.6585 47.9281 49.7725 47.8349 49.8657C47.7468 49.959 47.6381 50.0056 47.5086 50.0056ZM47.8504 50.6971V54.9551H47.1434V50.6971H47.8504ZM51.1301 50.6194C51.6481 50.6194 52.0677 50.7774 52.3888 51.0934C52.71 51.4042 52.8706 51.8549 52.8706 52.4454V54.9551H52.1713V52.5464C52.1713 52.1216 52.0651 51.7979 51.8527 51.5751C51.6403 51.3472 51.3503 51.2333 50.9825 51.2333C50.6095 51.2333 50.3117 51.3498 50.0889 51.5829C49.8714 51.816 49.7626 52.1553 49.7626 52.6008V54.9551H49.0555V50.6971H49.7626V51.3032C49.9024 51.0856 50.0915 50.9173 50.3298 50.7981C50.5733 50.679 50.84 50.6194 51.1301 50.6194ZM55.7816 50.6272C56.1494 50.6272 56.4705 50.7075 56.7451 50.8681C57.0248 51.0286 57.232 51.2307 57.3667 51.4741V50.6971H58.0815V55.0483C58.0815 55.4368 57.9986 55.7813 57.8329 56.0817C57.6671 56.3873 57.4288 56.6256 57.118 56.7966C56.8124 56.9675 56.455 57.053 56.0458 57.053C55.4863 57.053 55.0201 56.9209 54.6472 56.6567C54.2742 56.3925 54.0541 56.0325 53.9867 55.5767H54.686C54.7637 55.8357 54.9243 56.0429 55.1678 56.1983C55.4112 56.3589 55.7039 56.4391 56.0458 56.4391C56.4343 56.4391 56.7503 56.3174 56.9937 56.074C57.2424 55.8305 57.3667 55.4886 57.3667 55.0483V54.1548C57.2268 54.4034 57.0196 54.6106 56.7451 54.7764C56.4705 54.9421 56.1494 55.025 55.7816 55.025C55.4035 55.025 55.059 54.9318 54.7482 54.7453C54.4426 54.5588 54.2017 54.2972 54.0256 53.9605C53.8495 53.6238 53.7614 53.2405 53.7614 52.8106C53.7614 52.3754 53.8495 51.9947 54.0256 51.6684C54.2017 51.3369 54.4426 51.0804 54.7482 50.8991C55.059 50.7178 55.4035 50.6272 55.7816 50.6272ZM57.3667 52.8183C57.3667 52.4972 57.3019 52.2175 57.1724 51.9792C57.0429 51.7409 56.8668 51.5596 56.6441 51.4353C56.4265 51.3058 56.1856 51.241 55.9215 51.241C55.6573 51.241 55.4164 51.3032 55.1988 51.4275C54.9813 51.5518 54.8078 51.7331 54.6783 51.9714C54.5488 52.2097 54.484 52.4894 54.484 52.8106C54.484 53.1369 54.5488 53.4218 54.6783 53.6653C54.8078 53.9035 54.9813 54.0874 55.1988 54.2169C55.4164 54.3412 55.6573 54.4034 55.9215 54.4034C56.1856 54.4034 56.4265 54.3412 56.6441 54.2169C56.8668 54.0874 57.0429 53.9035 57.1724 53.6653C57.3019 53.4218 57.3667 53.1395 57.3667 52.8183ZM63.065 55.0095C62.7076 55.0095 62.3865 54.9473 62.1016 54.823C61.8219 54.6935 61.6017 54.5174 61.4411 54.2946C61.2805 54.0667 61.1977 53.8051 61.1925 53.5099H61.9462C61.9721 53.7637 62.0757 53.9786 62.257 54.1548C62.4434 54.3257 62.7128 54.4112 63.065 54.4112C63.4017 54.4112 63.6659 54.3283 63.8576 54.1625C64.0544 53.9916 64.1528 53.774 64.1528 53.5099C64.1528 53.3027 64.0959 53.1343 63.9819 53.0048C63.8679 52.8753 63.7255 52.7769 63.5546 52.7096C63.3836 52.6422 63.1531 52.5697 62.863 52.492C62.5056 52.3988 62.2181 52.3055 62.0006 52.2123C61.7882 52.119 61.6043 51.974 61.4489 51.7772C61.2987 51.5751 61.2236 51.3058 61.2236 50.9691C61.2236 50.6738 61.2987 50.4122 61.4489 50.1843C61.5991 49.9564 61.8089 49.7803 62.0783 49.6559C62.3528 49.5316 62.6662 49.4695 63.0184 49.4695C63.5261 49.4695 63.9405 49.5964 64.2616 49.8502C64.588 50.104 64.7719 50.4407 64.8133 50.8603H64.0363C64.0104 50.6531 63.9016 50.4718 63.71 50.3164C63.5183 50.1558 63.2645 50.0755 62.9485 50.0755C62.6532 50.0755 62.4124 50.1532 62.2259 50.3086C62.0394 50.4588 61.9462 50.6712 61.9462 50.9458C61.9462 51.1426 62.0006 51.3032 62.1093 51.4275C62.2233 51.5518 62.3606 51.6477 62.5211 51.715C62.6869 51.7772 62.9174 51.8497 63.2127 51.9326C63.5701 52.031 63.8576 52.1294 64.0751 52.2278C64.2927 52.3211 64.4792 52.4687 64.6346 52.6707C64.79 52.8675 64.8677 53.1369 64.8677 53.4788C64.8677 53.743 64.7978 53.9916 64.6579 54.2247C64.518 54.4578 64.3108 54.6469 64.0363 54.7919C63.7618 54.9369 63.438 55.0095 63.065 55.0095ZM71.0286 50.6194C71.3601 50.6194 71.6554 50.6894 71.9144 50.8292C72.1734 50.9639 72.378 51.1685 72.5282 51.443C72.6784 51.7176 72.7536 52.0517 72.7536 52.4454V54.9551H72.0543V52.5464C72.0543 52.1216 71.9481 51.7979 71.7357 51.5751C71.5285 51.3472 71.2462 51.2333 70.8888 51.2333C70.521 51.2333 70.2283 51.3524 70.0107 51.5907C69.7932 51.8238 69.6844 52.1631 69.6844 52.6085V54.9551H68.9851V52.5464C68.9851 52.1216 68.8789 51.7979 68.6665 51.5751C68.4593 51.3472 68.177 51.2333 67.8196 51.2333C67.4518 51.2333 67.1592 51.3524 66.9416 51.5907C66.724 51.8238 66.6153 52.1631 66.6153 52.6085V54.9551H65.9082V50.6971H66.6153V51.311C66.7551 51.0882 66.9416 50.9173 67.1747 50.7981C67.413 50.679 67.6746 50.6194 67.9595 50.6194C68.3169 50.6194 68.6329 50.6997 68.9074 50.8603C69.1819 51.0209 69.3866 51.2566 69.5212 51.5674C69.6404 51.2669 69.8372 51.0338 70.1118 50.8681C70.3863 50.7023 70.6919 50.6194 71.0286 50.6194ZM75.7704 55.025C75.3716 55.025 75.009 54.9344 74.6826 54.7531C74.3615 54.5718 74.1077 54.3153 73.9212 53.9838C73.7399 53.6471 73.6492 53.2586 73.6492 52.8183C73.6492 52.3832 73.7425 51.9999 73.9289 51.6684C74.1206 51.3317 74.3796 51.0753 74.7059 50.8991C75.0323 50.7178 75.3975 50.6272 75.8015 50.6272C76.2056 50.6272 76.5707 50.7178 76.8971 50.8991C77.2234 51.0753 77.4798 51.3291 77.6663 51.6606C77.858 51.9921 77.9538 52.378 77.9538 52.8183C77.9538 53.2586 77.8554 53.6471 77.6585 53.9838C77.4669 54.3153 77.2053 54.5718 76.8738 54.7531C76.5423 54.9344 76.1745 55.025 75.7704 55.025ZM75.7704 54.4034C76.0243 54.4034 76.2625 54.3438 76.4853 54.2247C76.708 54.1056 76.8867 53.9268 77.0214 53.6886C77.1613 53.4503 77.2312 53.1602 77.2312 52.8183C77.2312 52.4765 77.1639 52.1864 77.0292 51.9481C76.8945 51.7098 76.7184 51.5337 76.5008 51.4197C76.2833 51.3006 76.0476 51.241 75.7937 51.241C75.5347 51.241 75.2965 51.3006 75.0789 51.4197C74.8665 51.5337 74.6956 51.7098 74.5661 51.9481C74.4366 52.1864 74.3718 52.4765 74.3718 52.8183C74.3718 53.1654 74.434 53.4581 74.5583 53.6963C74.6878 53.9346 74.8588 54.1133 75.0711 54.2325C75.2835 54.3464 75.5166 54.4034 75.7704 54.4034ZM81.2611 54.9551L79.5905 53.0747V54.9551H78.8835V49.2053H79.5905V52.5852L81.23 50.6971H82.2168L80.2121 52.8183L82.2246 54.9551H81.2611ZM83.2475 50.0056C83.1128 50.0056 82.9988 49.959 82.9056 49.8657C82.8123 49.7725 82.7657 49.6585 82.7657 49.5239C82.7657 49.3892 82.8123 49.2752 82.9056 49.182C82.9988 49.0887 83.1128 49.0421 83.2475 49.0421C83.377 49.0421 83.4857 49.0887 83.5738 49.182C83.667 49.2752 83.7137 49.3892 83.7137 49.5239C83.7137 49.6585 83.667 49.7725 83.5738 49.8657C83.4857 49.959 83.377 50.0056 83.2475 50.0056ZM83.5893 50.6971V54.9551H82.8823V50.6971H83.5893ZM86.869 50.6194C87.387 50.6194 87.8066 50.7774 88.1277 51.0934C88.4489 51.4042 88.6095 51.8549 88.6095 52.4454V54.9551H87.9102V52.5464C87.9102 52.1216 87.804 51.7979 87.5916 51.5751C87.3792 51.3472 87.0892 51.2333 86.7214 51.2333C86.3484 51.2333 86.0506 51.3498 85.8278 51.5829C85.6103 51.816 85.5015 52.1553 85.5015 52.6008V54.9551H84.7944V50.6971H85.5015V51.3032C85.6414 51.0856 85.8304 50.9173 86.0687 50.7981C86.3122 50.679 86.5789 50.6194 86.869 50.6194ZM91.5205 50.6272C91.8883 50.6272 92.2094 50.7075 92.484 50.8681C92.7637 51.0286 92.9709 51.2307 93.1056 51.4741V50.6971H93.8204V55.0483C93.8204 55.4368 93.7375 55.7813 93.5718 56.0817C93.406 56.3873 93.1677 56.6256 92.8569 56.7966C92.5513 56.9675 92.1939 57.053 91.7847 57.053C91.2252 57.053 90.759 56.9209 90.3861 56.6567C90.0131 56.3925 89.793 56.0325 89.7256 55.5767H90.4249C90.5026 55.8357 90.6632 56.0429 90.9067 56.1983C91.1501 56.3589 91.4428 56.4391 91.7847 56.4391C92.1732 56.4391 92.4892 56.3174 92.7326 56.074C92.9813 55.8305 93.1056 55.4886 93.1056 55.0483V54.1548C92.9657 54.4034 92.7585 54.6106 92.484 54.7764C92.2094 54.9421 91.8883 55.025 91.5205 55.025C91.1424 55.025 90.7979 54.9318 90.4871 54.7453C90.1815 54.5588 89.9406 54.2972 89.7645 53.9605C89.5884 53.6238 89.5003 53.2405 89.5003 52.8106C89.5003 52.3754 89.5884 51.9947 89.7645 51.6684C89.9406 51.3369 90.1815 51.0804 90.4871 50.8991C90.7979 50.7178 91.1424 50.6272 91.5205 50.6272ZM93.1056 52.8183C93.1056 52.4972 93.0408 52.2175 92.9113 51.9792C92.7818 51.7409 92.6057 51.5596 92.383 51.4353C92.1654 51.3058 91.9245 51.241 91.6604 51.241C91.3962 51.241 91.1553 51.3032 90.9378 51.4275C90.7202 51.5518 90.5467 51.7331 90.4172 51.9714C90.2877 52.2097 90.2229 52.4894 90.2229 52.8106C90.2229 53.1369 90.2877 53.4218 90.4172 53.6653C90.5467 53.9035 90.7202 54.0874 90.9378 54.2169C91.1553 54.3412 91.3962 54.4034 91.6604 54.4034C91.9245 54.4034 92.1654 54.3412 92.383 54.2169C92.6057 54.0874 92.7818 53.9035 92.9113 53.6653C93.0408 53.4218 93.1056 53.1395 93.1056 52.8183ZM102.58 49.5782V54.9551H101.873V50.9458L100.086 54.9551H99.5887L97.7939 50.938V54.9551H97.0868V49.5782H97.8482L99.8374 54.0227L101.826 49.5782H102.58ZM103.515 52.8106C103.515 52.3754 103.603 51.9947 103.779 51.6684C103.955 51.3369 104.196 51.0804 104.502 50.8991C104.813 50.7178 105.157 50.6272 105.535 50.6272C105.908 50.6272 106.232 50.7075 106.507 50.8681C106.781 51.0286 106.986 51.2307 107.12 51.4741V50.6971H107.835V54.9551H107.12V54.1625C106.981 54.4112 106.771 54.6184 106.491 54.7841C106.216 54.9447 105.895 55.025 105.528 55.025C105.149 55.025 104.808 54.9318 104.502 54.7453C104.196 54.5588 103.955 54.2972 103.779 53.9605C103.603 53.6238 103.515 53.2405 103.515 52.8106ZM107.12 52.8183C107.12 52.4972 107.056 52.2175 106.926 51.9792C106.797 51.7409 106.621 51.5596 106.398 51.4353C106.18 51.3058 105.939 51.241 105.675 51.241C105.411 51.241 105.17 51.3032 104.953 51.4275C104.735 51.5518 104.561 51.7331 104.432 51.9714C104.302 52.2097 104.238 52.4894 104.238 52.8106C104.238 53.1369 104.302 53.4218 104.432 53.6653C104.561 53.9035 104.735 54.0874 104.953 54.2169C105.17 54.3412 105.411 54.4034 105.675 54.4034C105.939 54.4034 106.18 54.3412 106.398 54.2169C106.621 54.0874 106.797 53.9035 106.926 53.6653C107.056 53.4218 107.12 53.1395 107.12 52.8183ZM108.766 52.8106C108.766 52.3754 108.854 51.9947 109.03 51.6684C109.206 51.3369 109.447 51.0804 109.753 50.8991C110.064 50.7178 110.411 50.6272 110.794 50.6272C111.125 50.6272 111.434 50.7049 111.719 50.8603C112.003 51.0105 112.221 51.2099 112.371 51.4586V49.2053H113.086V54.9551H112.371V54.1548C112.231 54.4086 112.024 54.6184 111.75 54.7841C111.475 54.9447 111.154 55.025 110.786 55.025C110.408 55.025 110.064 54.9318 109.753 54.7453C109.447 54.5588 109.206 54.2972 109.03 53.9605C108.854 53.6238 108.766 53.2405 108.766 52.8106ZM112.371 52.8183C112.371 52.4972 112.306 52.2175 112.177 51.9792C112.047 51.7409 111.871 51.5596 111.649 51.4353C111.431 51.3058 111.19 51.241 110.926 51.241C110.662 51.241 110.421 51.3032 110.203 51.4275C109.986 51.5518 109.812 51.7331 109.683 51.9714C109.553 52.2097 109.489 52.4894 109.489 52.8106C109.489 53.1369 109.553 53.4218 109.683 53.6653C109.812 53.9035 109.986 54.0874 110.203 54.2169C110.421 54.3412 110.662 54.4034 110.926 54.4034C111.19 54.4034 111.431 54.3412 111.649 54.2169C111.871 54.0874 112.047 53.9035 112.177 53.6653C112.306 53.4218 112.371 53.1395 112.371 52.8183ZM118.166 52.6629C118.166 52.7976 118.158 52.9401 118.143 53.0903H114.739C114.765 53.5099 114.908 53.8388 115.167 54.0771C115.431 54.3102 115.749 54.4267 116.122 54.4267C116.428 54.4267 116.682 54.3568 116.884 54.2169C117.091 54.0719 117.236 53.8802 117.319 53.642H118.08C117.966 54.0512 117.739 54.3853 117.397 54.6443C117.055 54.8981 116.63 55.025 116.122 55.025C115.718 55.025 115.356 54.9344 115.035 54.7531C114.719 54.5718 114.47 54.3153 114.289 53.9838C114.107 53.6471 114.017 53.2586 114.017 52.8183C114.017 52.378 114.105 51.9921 114.281 51.6606C114.457 51.3291 114.703 51.0753 115.019 50.8991C115.34 50.7178 115.708 50.6272 116.122 50.6272C116.526 50.6272 116.884 50.7153 117.195 50.8914C117.505 51.0675 117.744 51.311 117.909 51.6218C118.08 51.9274 118.166 52.2744 118.166 52.6629ZM117.436 52.5153C117.436 52.2459 117.376 52.0154 117.257 51.8238C117.138 51.6269 116.975 51.4793 116.767 51.3809C116.565 51.2773 116.34 51.2255 116.091 51.2255C115.734 51.2255 115.428 51.3394 115.174 51.5674C114.926 51.7953 114.783 52.1113 114.747 52.5153H117.436ZM121.878 50.1144V51.9248H123.851V52.5075H121.878V54.3723H124.084V54.9551H121.171V49.5316H124.084V50.1144H121.878ZM124.89 52.8106C124.89 52.3754 124.978 51.9947 125.154 51.6684C125.33 51.3369 125.571 51.0804 125.877 50.8991C126.188 50.7178 126.532 50.6272 126.91 50.6272C127.283 50.6272 127.607 50.7075 127.882 50.8681C128.156 51.0286 128.361 51.2307 128.495 51.4741V50.6971H129.21V54.9551H128.495V54.1625C128.356 54.4112 128.146 54.6184 127.866 54.7841C127.592 54.9447 127.27 55.025 126.903 55.025C126.524 55.025 126.183 54.9318 125.877 54.7453C125.571 54.5588 125.33 54.2972 125.154 53.9605C124.978 53.6238 124.89 53.2405 124.89 52.8106ZM128.495 52.8183C128.495 52.4972 128.431 52.2175 128.301 51.9792C128.172 51.7409 127.996 51.5596 127.773 51.4353C127.555 51.3058 127.314 51.241 127.05 51.241C126.786 51.241 126.545 51.3032 126.328 51.4275C126.11 51.5518 125.937 51.7331 125.807 51.9714C125.678 52.2097 125.613 52.4894 125.613 52.8106C125.613 53.1369 125.678 53.4218 125.807 53.6653C125.937 53.9035 126.11 54.0874 126.328 54.2169C126.545 54.3412 126.786 54.4034 127.05 54.4034C127.314 54.4034 127.555 54.3412 127.773 54.2169C127.996 54.0874 128.172 53.9035 128.301 53.6653C128.431 53.4218 128.495 53.1395 128.495 52.8183ZM131.913 55.025C131.586 55.025 131.294 54.9706 131.035 54.8618C130.776 54.7479 130.571 54.5925 130.421 54.3956C130.27 54.1936 130.188 53.9631 130.172 53.7041H130.902C130.923 53.9165 131.022 54.09 131.198 54.2247C131.379 54.3594 131.615 54.4267 131.905 54.4267C132.174 54.4267 132.386 54.3671 132.542 54.248C132.697 54.1289 132.775 53.9786 132.775 53.7974C132.775 53.6109 132.692 53.4736 132.526 53.3855C132.361 53.2923 132.104 53.2017 131.757 53.1136C131.441 53.0307 131.182 52.9478 130.98 52.865C130.783 52.7769 130.612 52.65 130.467 52.4842C130.327 52.3133 130.258 52.0905 130.258 51.816C130.258 51.5984 130.322 51.399 130.452 51.2177C130.581 51.0364 130.765 50.894 131.003 50.7904C131.242 50.6816 131.514 50.6272 131.819 50.6272C132.291 50.6272 132.671 50.7463 132.961 50.9846C133.252 51.2229 133.407 51.5492 133.428 51.9636H132.721C132.705 51.7409 132.614 51.5622 132.449 51.4275C132.288 51.2928 132.071 51.2255 131.796 51.2255C131.542 51.2255 131.34 51.2799 131.19 51.3887C131.04 51.4974 130.965 51.6399 130.965 51.816C130.965 51.9559 131.009 52.0724 131.097 52.1657C131.19 52.2537 131.304 52.3262 131.439 52.3832C131.578 52.435 131.77 52.4946 132.014 52.5619C132.319 52.6448 132.568 52.7277 132.759 52.8106C132.951 52.8883 133.114 53.0074 133.249 53.168C133.389 53.3286 133.461 53.5384 133.467 53.7974C133.467 54.0304 133.402 54.2402 133.272 54.4267C133.143 54.6132 132.959 54.7608 132.721 54.8696C132.488 54.9732 132.218 55.025 131.913 55.025ZM138.132 50.6971L135.568 56.9597H134.838L135.677 54.9085L133.96 50.6971H134.744L136.081 54.147L137.402 50.6971H138.132Z" fill="#333333"/>
</svg>
